<?xml version="1.0" encoding="UTF-8" standalone="no"?>
<!-- Created with Inkscape (http://www.inkscape.org/) -->

<svg
   width="48"
   height="48"
   viewBox="0 0 12.7 12.7"
   version="1.1"
   id="svg5"
   xml:space="preserve"
   inkscape:version="1.2.2 (b0a8486541, 2022-12-01)"
   sodipodi:docname="icon.svg"
   inkscape:export-filename="icon.png"
   inkscape:export-xdpi="512"
   inkscape:export-ydpi="512"
   xmlns:inkscape="http://www.inkscape.org/namespaces/inkscape"
   xmlns:sodipodi="http://sodipodi.sourceforge.net/DTD/sodipodi-0.dtd"
   xmlns="http://www.w3.org/2000/svg"
   xmlns:svg="http://www.w3.org/2000/svg"><sodipodi:namedview
     id="namedview7"
     pagecolor="#ffffff"
     bordercolor="#999999"
     borderopacity="1"
     inkscape:showpageshadow="0"
     inkscape:pageopacity="0"
     inkscape:pagecheckerboard="0"
     inkscape:deskcolor="#d1d1d1"
     inkscape:document-units="px"
     showgrid="false"
     showguides="true"
     inkscape:zoom="7.9421345"
     inkscape:cx="19.642075"
     inkscape:cy="27.133764"
     inkscape:window-width="1872"
     inkscape:window-height="1016"
     inkscape:window-x="0"
     inkscape:window-y="0"
     inkscape:window-maximized="1"
     inkscape:current-layer="layer1" /><defs
     id="defs2" /><g
     inkscape:label="Warstwa 1"
     inkscape:groupmode="layer"
     id="layer1"><circle
       style="opacity:1;fill:#999999;stroke-width:1.32292;stroke-linecap:round;paint-order:stroke fill markers"
       id="path1345"
       cx="6.3499999"
       cy="6.3499999"
       r="6.3499999" /><g
       id="g1355"
       transform="matrix(0.27174976,0,0,0.27174976,-7.7144737,4.4885226)"
       style="stroke-width:3.67986"><path
         id="rect495"
         style="opacity:1;fill:#ffffff;stroke-width:4.86816;stroke-linecap:round;paint-order:stroke fill markers"
         d="m 39.881804,-6.9453126 c -1.064719,0 -1.921847,0.8571278 -1.921847,1.9218465 v 9.4516196 c 0,1.0647188 0.857128,1.9218466 1.921847,1.9218466 h 9.45162 c 1.064718,0 1.921846,-0.8571278 1.921846,-1.9218466 v -9.4516196 c 0,-1.0647187 -0.857128,-1.9218465 -1.921846,-1.9218465 z m 4.72581,3.3760214 c 0.583017,0 1.052649,0.4691146 1.052649,1.0521321 v 1.1668539 h 1.166854 c 0.583017,0 1.052132,0.46963141 1.052132,1.05264895 0,0.58301753 -0.469115,1.05213217 -1.052132,1.05213217 H 45.660263 V 1.9218465 c 0,0.5830176 -0.469632,1.0521322 -1.052649,1.0521322 -0.583018,0 -1.052132,-0.4691146 -1.052132,-1.0521322 V 0.75447592 h -1.167371 c -0.583017,0 -1.052132,-0.46911464 -1.052132,-1.05213217 0,-0.58301754 0.469115,-1.05264895 1.052132,-1.05264895 h 1.167371 v -1.1668539 c 0,-0.5830175 0.469114,-1.0521321 1.052132,-1.0521321 z" /><path
         id="rect1105"
         style="opacity:1;fill:#ffffff;stroke-width:4.86816;stroke-linecap:round;paint-order:stroke fill markers"
         d="m 54.177056,-6.9453126 c -1.064719,0 -1.921847,0.8571278 -1.921847,1.9218465 v 9.4516196 c 0,1.0647188 0.857128,1.9218466 1.921847,1.9218466 h 9.451619 c 1.064719,0 1.921847,-0.8571278 1.921847,-1.9218466 v -9.4516196 c 0,-1.0647187 -0.857128,-1.9218465 -1.921847,-1.9218465 z m 2.506823,5.5950074 h 4.438489 c 0.583018,0 1.052649,0.46963083 1.052649,1.05264895 0,0.58301811 -0.469631,1.05213217 -1.052649,1.05213217 h -4.438489 c -0.583018,0 -1.052649,-0.46911406 -1.052649,-1.05213217 0,-0.58301812 0.469631,-1.05264895 1.052649,-1.05264895 z" /><path
         id="rect1107"
         style="opacity:1;fill:#ffffff;stroke-width:4.86816;stroke-linecap:round;paint-order:stroke fill markers"
         d="m 39.881804,7.3499391 c -1.064719,0 -1.921847,0.8571278 -1.921847,1.9218465 v 9.4516194 c 0,1.064719 0.857128,1.921847 1.921847,1.921847 h 9.45162 c 1.064718,0 1.921846,-0.857128 1.921846,-1.921847 V 9.2717856 c 0,-1.0647187 -0.857128,-1.9218465 -1.921846,-1.9218465 z m 3.156397,4.0250769 c 0.269011,-9.1e-5 0.538012,0.102898 0.74414,0.309026 l 0.82579,0.825272 0.824755,-0.824756 c 0.412256,-0.412255 1.076026,-0.412255 1.488282,0 0.412255,0.412256 0.412255,1.076026 0,1.488282 l -0.824756,0.824755 0.824756,0.825273 c 0.412255,0.412256 0.412255,1.076026 0,1.488281 -0.412256,0.412256 -1.076026,0.412256 -1.488282,0 l -0.824755,-0.825272 -0.82579,0.825789 c -0.412255,0.412256 -1.076026,0.411739 -1.488281,-5.17e-4 -0.412256,-0.412255 -0.412256,-1.075509 0,-1.487764 l 0.825789,-0.82579 -0.825789,-0.825272 c -0.412256,-0.412256 -0.412256,-1.075509 0,-1.487765 0.206128,-0.206128 0.475129,-0.30945 0.744141,-0.309542 z" /><path
         id="rect1109"
         style="opacity:1;fill:#ffffff;stroke-width:4.86816;stroke-linecap:round;paint-order:stroke fill markers"
         d="m 54.177056,7.3499391 c -1.064719,0 -1.921847,0.8571278 -1.921847,1.9218465 v 9.4516194 c 0,1.064719 0.857128,1.921847 1.921847,1.921847 h 9.451619 c 1.064719,0 1.921847,-0.857128 1.921847,-1.921847 V 9.2717856 c 0,-1.0647187 -0.857128,-1.9218465 -1.921847,-1.9218465 z m 2.506823,4.0250769 h 4.438489 c 0.583019,0 1.052649,0.469115 1.052649,1.052133 0,0.583018 -0.46963,1.052649 -1.052649,1.052649 h -4.438489 c -0.583018,0 -1.052649,-0.469631 -1.052649,-1.052649 0,-0.583018 0.469631,-1.052133 1.052649,-1.052133 z m 0,3.140894 h 4.438489 c 0.583019,0 1.052649,0.469114 1.052649,1.052132 0,0.583018 -0.46963,1.052649 -1.052649,1.052649 h -4.438489 c -0.583018,0 -1.052649,-0.469631 -1.052649,-1.052649 0,-0.583018 0.469631,-1.052132 1.052649,-1.052132 z" /></g><path
       id="rect1461"
       style="opacity:1;fill:#ff2a2a;stroke-width:1.32292;stroke-linecap:round;paint-order:stroke fill markers"
       d="m 0.39626952,6.1370909 c -0.0471268,0 -0.0849607,0.037974 -0.0849607,0.085101 V 6.477916 c 0,0.047127 0.0378338,0.08496 0.0849607,0.08496 H 1.9296309 c 0.047127,0 0.085101,-0.037834 0.085101,-0.08496 V 6.435085 h 8.6704651 v 0.042831 c 0,0.047127 0.03797,0.08496 0.0851,0.08496 h 1.533362 c 0.04713,0 0.0851,-0.037834 0.0851,-0.08496 V 6.2221918 c 0,-0.047127 -0.03797,-0.085101 -0.0851,-0.085101 h -1.533362 c -0.04713,0 -0.0851,0.037974 -0.0851,0.085101 v 0.042691 H 2.0147317 v -0.042691 c 0,-0.047127 -0.037974,-0.085101 -0.085101,-0.085101 z" /><path
       id="path1517"
       style="opacity:1;fill:#ff2a2a;stroke-width:1.32292;stroke-linecap:round;paint-order:stroke fill markers"
       d="m 6.5629274,0.39621862 c 0,-0.0471268 -0.037974,-0.0849607 -0.085101,-0.0849607 H 6.2221023 c -0.047127,0 -0.08496,0.0378338 -0.08496,0.0849607 V 1.9295798 c 0,0.047127 0.037834,0.085101 0.08496,0.085101 h 0.042831 v 8.6704652 h -0.042831 c -0.047127,0 -0.08496,0.03798 -0.08496,0.0851 v 1.533362 c 0,0.04713 0.037834,0.0851 0.08496,0.0851 h 0.2557242 c 0.047127,0 0.085101,-0.03797 0.085101,-0.0851 v -1.533362 c 0,-0.04713 -0.037974,-0.0851 -0.085101,-0.0851 H 6.4351357 V 2.0146807 h 0.042691 c 0.047127,0 0.085101,-0.037974 0.085101,-0.085101 z" /></g></svg>
